# xmcd
#
# Track frame offsets: 
#        182
#        21205
#        36560
#        55907
#        67185
#
# Disc length: 1138 seconds
#
# Revision: 0
# Processed by: cddbd v1.4PL0 Copyright (c) Steve Scherf et al.
# Submitted via: ExactAudioCopy v0.95a3
#
DISCID=47047005
DTITLE=Southern Culture on the Skids - 5 Cut Sampler
DYEAR=1900
DGENRE=
TTITLE0=Voodoo Cadillac
TTITLE1=Firefly
TTITLE2=Fried Chicken and Gasoline
TTITLE3=Whole Lotta Things
TTITLE4=8 Piece Box
EXTD=
EXTT0=
EXTT1=
EXTT2=
EXTT3=
EXTT4=
PLAYORDER=
